<?xml version="1.0" encoding="UTF-8"?><svg id="a" xmlns="http://www.w3.org/2000/svg" viewBox="0 0 700 700"><defs><style>.b{fill:#68332e;}.c{fill:#f4e991;}.d{fill:#fdf9e6;}.e{fill:#c8c3b4;}.f{fill:#954f2e;}.g{fill:#57534f;}.h{fill:#605c57;}</style></defs><path d="M293.22,82.33c-.09-.46-.28-.83-.56-1.2-75.74-7.87-166.58,2.83-224.64,53.85C19.13,177.95,.62,234.61,12.56,299.71c8.89,48.34,35.74,86.02,72.04,117.5,14.35,12.5,29.72,23.8,44.63,35.65,4.54,2.96,8.98,5.93,13.52,8.89,13.24,2.31,23.33,10.37,33.15,18.8,9.26,4.17,17.5,9.72,25.28,16.2-2.96,2.59-4.44,3.98-5.83,5.19,33.06,22.87,67.69,42.87,96.11,71.3,19.35,11.85,31.76,30.65,47.04,46.39-1.09,5.63-3.5,9.97-6.97,14.54-1.04,1.37-2.14,2.7-2.95,4.22-.74,1.38-1.22,2.88-1.67,4.38-1.04,3.47-1.92,6.99-2.64,10.54,.56-1.27,1.11-2.54,1.79-3.75,.94-1.7,2.1-3.27,3.26-4.84,3.66-4.95,7.12-8.82,11.51-12.99,1.9-1.8,2.8-3.46,5.39-2.28,2.27,1.03,4.11,4.72,5.42,6.7,3.96,5.99,8.19,12.02,12.99,17.39,4.1,4.59,9.72,7.08,13.3,12.46-4.2-6.37-5.63-14.18-9.2-20.93-3.44-6.51-8.7-11.74-12.98-17.67s-3.98-10.41,3.49-13.31c8.43,8.8,15.4,18.62,23.8,28.61,9.63,11.46,14.63,27.69,32.78,32.32-.37-4.17,.01-6.51-.74-8.61-3.54-9.84-12.85-16.47-19.24-24.74-6.47-8.37-11.35-17-16.05-26.4-1.55,.46-4.23-2.71-5.33-3.72-1.84-1.7-3.56-3.55-4.91-5.67-1.21-1.89-3.34-7.22,1.1-4.44,2.55,1.59,4.66,3.86,6.12,6.48,1.14,2.05,1.32,6.35,3.72,7.03,1.23,.35,2.76-.09,4.07,.23s2.58,.98,3.7,1.8c2.43,1.78,4.21,4.32,6.08,6.64,.65,.46,1.3,.93,1.85,1.48-.28,.09-.56,.19-.74,.28,6.85,10.65,11.76,23.06,25.83,27.13-5-13.06-14.54-22.78-23.24-33.15-1.76-4.63-7.32-7.69-5.56-14.54,1.3-4.07,15.8-19.26,15.52-24.81l-10.24,12.03c0-.09,5.24-9.94,5.24-10.03-3.98,2.68-13.39,15.22-17.37,17.9-.61,.41-5.08-5.09-5.42-5.78-.64-1.29-1.09-2.81-.57-4.14,.71-1.8,2.41-3.61,3.5-5.22,4.56-6.74,9.33-13.38,14.89-19.34,2.04-2.18,4.28-4.34,7-5.65,3.35-1.62,5.35-1.03,8.01,1.51,4.65,4.43,.98,9.03-3.24,12.05-3.43,6.48-11.48,10.09-12.04,18.52,.19-.09,.28-.19,.46-.28,22.5-19.35,44.82-39.08,67.69-57.97,31.2-25.74,65.74-46.95,99.45-69.26-2.31-3.06-6.85-1.02-7.59-4.82,10.28-6.48,20.46-12.96,30.74-19.35,16.76-14.26,33.61-28.52,50.37-42.69,79.54-85.47,78.71-252.88-86.02-305.94-41.48-13.33-83.8-19.26-127.23-18.52l.37,.37c2.13,7.78,8.52,5,13.24,5,24.44-.28,48.33,3.24,71.76,11.57-30-4.44-60.19-3.89-90.28-3.7-23.8,5.37-47.22,11.39-63.89,31.11,3.7,5.56,9.35,.46,13.7,4.82-7.31,6.3-14.54,12.41-22.22,19.07-7.96-7.13-14.63-13.06-20.09-17.87-2.04-6.94,4.82-11.94-.93-17.04-13.9-7.52-27.4-13.4-43.04-16.03-15.44-2.6-31.25-3.01-46.8-1.18-11.67,1.37-23.13,3.98-34.65,6.25-5.19,1.02-29.54,7.61-32.35,3.12,13.87-12.69,43.21-14.95,61.1-15.31,13.8-.28,47.59-.46,61.39-.65m330.94,64.45c-8.61-1.57-13.8-7.04-18.15-13.33,10.65-.74,14.82,5.74,18.15,13.33Zm-163.62-47.59c-25.09,7.59-47.96,6.85-72.69,17.41,18.06-17.59,42.13-23.06,72.69-17.41Zm-45.56,23.8c-17.96,10.28-35.83,20.46-53.8,30.74-.93-1.67-1.85-3.43-2.78-5.09,16.2-13.43,32.5-26.67,56.58-25.65Zm-78.8,30.28c-15.93-8.8-31.76-17.5-47.59-26.3,21.11-1.48,36.11,8.89,47.59,26.3Zm-26.2-39.35c-20.56-1.94-40.09-9.82-61.3-10.83,21.95-6.48,42.04-.09,61.3,10.83Zm-204.82,39.17q-4.44,10.65-19.17,18.61c5.28-10.37,12.13-13.43,19.17-18.61Zm-59.91,110.84c-4.54-33.33,8.89-61.02,32.04-84.73-3.15,15.28-16.11,25.93-20.37,40.74-4.17,14.63-7.78,29.35-11.67,43.98Zm197.32,231.86c-21.95-14.63-43.89-29.26-65.84-43.89,1.02-1.2,2.04-2.5,3.06-3.7,24.26,10.74,45.56,25.83,65.56,43.24-.93,1.48-1.85,2.87-2.78,4.35Zm77.87,53.34c11.2,3.52,23.33,14.72,28.24,25.93-7.69-7.04-19.54-17.96-28.24-25.93Zm51.11,31.76c-1.94-1.76-3.98-3.43-5.93-5.19,18.43-21.85,39.45-41.11,64.63-56.39-19.54,20.56-39.17,41.11-58.71,61.58Zm144.73-119.17c22.41-26.11,52.22-43.33,79.35-63.8-22.32,26.11-52.13,43.33-79.35,63.8Zm84.82-89.26c-39.63,41.21-88.43,70.37-134.91,102.6-25.19,17.5-48.61,37.13-72.23,56.48-10.46,12.13-20.83,24.17-31.67,36.76-17.78-8.89-26.57-25.93-39.63-38.43-35.37-33.89-78.89-55.56-119.17-81.95-28.8-18.89-58.34-36.58-85.37-58.24-66.02-52.97-81.11-138.89-19.44-207.97,25.37-28.33,58.98-43.52,97.97-43.8,14.63-.19,29.28,1.62,43.64,3.87,18.31,2.87,41.54,7.14,58,16,13,7,37.06,20.78,44,28-4.26-14.17-28-28-41-35-3.33-1.79-22.45-7.7-26-9-11.06-4.05-18.54-5.17-30.21-7.39-3.15-1.48-42.07-12.46-41.79-20.61,33.7,3.33,96.24,29.41,123.37,47.46-1.48,4.63-2.5,8.33-7.78,6.02,2.22,10.19-5.37,17.13-8.52,25.46-3.06,8.24-10.83,15.09-7.96,27.59,11.57-15.74,15.65-34.63,32.13-46.21,9.07,6.94,17.87,13.7,26.67,20.37,1.76-5.56-6.39-11.11,.74-18.06,15.74,5.37,18.7,22.78,30.93,33.7-.28-19.45-15.19-30-22.13-44.45,25.65-28.43,60.09-35.28,98.06-44.08-5.65,12.41-13.52,10.74-19.63,12.78,17.78,7.69,36.39,3.24,54.45,3.06,66.58-.93,121.49,51.67,135.28,116.12,10,46.76-5.74,85.56-37.78,118.89Zm-6.85-213.9c37.87,11.11,69.08,67.87,60.84,110.74-3.43-46.21-23.61-83.15-60.84-110.74Z"/><path class="d" d="M379.79,615.18c-.18,.09-.46,.09-.65,.19l.56-.37c0,.09,.09,.09,.09,.18Z"/><path class="d" d="M396.18,625.09c-.28,.09-.56,.19-.74,.28-.37-.65-.74-1.2-1.11-1.76,.65,.46,1.3,.93,1.85,1.48Z"/><path class="h" d="M396.18,625.09c-.28,.09-.56,.19-.74,.28-.37-.65-.74-1.2-1.11-1.76,.65,.46,1.3,.93,1.85,1.48Z"/><path class="g" d="M356.18,628.98c.37,1.2,.74,2.41,1.11,3.52"/><path class="f" d="M410.07,400.18c-1.11-.83-2.31-1.76-3.43-2.78,1.2-.09,2.31,0,3.33,.28,0,.83,0,1.67,.09,2.5Z"/><path class="b" d="M410.07,400.18c-1.11-.83-2.31-1.76-3.43-2.78,1.2-.09,2.31,0,3.33,.28,0,.83,0,1.67,.09,2.5Z"/><path class="e" d="M379.7,615l-.56,.37v-.56c.19,.09,.37,.09,.56,.19Z"/><path class="c" d="M409.98,397.68c-1.02-.28-2.13-.37-3.33-.28,1.11,1.02,2.31,1.94,3.43,2.78-.09-.83-.09-1.67-.09-2.5Z"/></svg>